<?xml version="1.0" standalone="no"?><!DOCTYPE svg PUBLIC "-//W3C//DTD SVG 1.1//EN" "http://www.w3.org/Graphics/SVG/1.1/DTD/svg11.dtd"><svg class="icon" width="200px" height="200.00px" viewBox="0 0 1024 1024" version="1.1" xmlns="http://www.w3.org/2000/svg"><path d="M917.333333 938.666667h-21.333333V96a53.393333 53.393333 0 0 0-53.333333-53.333333H181.333333a53.393333 53.393333 0 0 0-53.333333 53.333333v842.666667h-21.333333a21.333333 21.333333 0 0 0 0 42.666666h810.666666a21.333333 21.333333 0 0 0 0-42.666666z m-128-384H661.333333a21.333333 21.333333 0 0 1 0-42.666667h128a21.333333 21.333333 0 0 1 0 42.666667z m21.333334 64v256a21.333333 21.333333 0 0 1-42.666667 0V618.666667a21.333333 21.333333 0 0 1 42.666667 0z m-597.333334 320V149.333333a21.333333 21.333333 0 0 1 21.333334-21.333333h554.666666a21.333333 21.333333 0 0 1 21.333334 21.333333v298.666667a21.333333 21.333333 0 0 1-42.666667 0V170.666667H256v768z" fill="#5C5C66" /></svg>