<?xml version="1.0" standalone="no"?><!DOCTYPE svg PUBLIC "-//W3C//DTD SVG 1.1//EN" "http://www.w3.org/Graphics/SVG/1.1/DTD/svg11.dtd"><svg class="icon" width="200px" height="200.00px" viewBox="0 0 1024 1024" version="1.1" xmlns="http://www.w3.org/2000/svg"><path d="M343.207869 699.240918V127.24459a99.714098 99.714098 0 0 0-99.714099-99.714098h-2.014426a99.714098 99.714098 0 0 0-99.714098 99.714098v571.996328c-40.708197 30.636066-67.147541 79.200525-67.147541 134.060066 0 92.713967 75.154885 167.868852 167.868852 167.868852s167.868852-75.154885 167.868853-167.868852c0-54.859541-26.439344-103.440787-67.147541-134.060066z" fill="#FFFFFF" /><path d="M242.486557 1017.956721c-101.812459 0-184.655738-82.843279-184.655737-184.655737a182.977049 182.977049 0 0 1 67.147541-142.201705V127.24459a116.635279 116.635279 0 0 1 116.500983-116.500983h2.014426a116.635279 116.635279 0 0 1 116.500984 116.500983v563.854689c42.772984 35.269246 67.147541 86.637115 67.147541 142.201705 0 101.812459-82.843279 184.655738-184.655738 184.655737z m-1.007213-973.639344a83.011148 83.011148 0 0 0-82.927213 82.927213v571.996328c0 5.271082-2.467672 10.24-6.697967 13.412721-38.42518 28.923803-60.449574 72.888656-60.449574 120.664131 0 83.296525 67.785443 151.081967 151.081967 151.081968s151.081967-67.785443 151.081968-151.081968c0-47.758689-22.04118-91.740328-60.449574-120.664131a16.786885 16.786885 0 0 1-6.697967-13.412721V127.24459a83.011148 83.011148 0 0 0-82.927214-82.927213h-2.014426z" fill="#000000" /><path d="M276.060328 738.438295a100.670951 100.670951 0 0 1-33.573771 195.584 100.654164 100.654164 0 1 1-33.57377-195.584V127.916066a33.238033 33.238033 0 0 1 33.238033-33.238033h0.671475a33.238033 33.238033 0 0 1 33.238033 33.238033v610.522229z" fill="#FFFFFF" /><path d="M276.060328 738.438295V262.546885h-67.147541v475.89141a100.670951 100.670951 0 0 0 33.57377 195.584 100.654164 100.654164 0 1 0 33.573771-195.584z" fill="#ED1C24" /><path d="M863.601311 127.24459a99.714098 99.714098 0 0 0-99.714098-99.714098h-2.014426a99.714098 99.714098 0 0 0-99.714098 99.714098v571.996328c-40.708197 30.636066-67.147541 79.200525-67.147541 134.060066 0 92.713967 75.154885 167.868852 167.868852 167.868852s167.868852-75.154885 167.868852-167.868852c0-54.859541-26.439344-103.440787-67.147541-134.060066V127.24459z" fill="#FFFFFF" /><path d="M259.273443 396.841967h33.57377v33.573771h-33.57377z" fill="#000000" /><path d="M292.847213 727.224656V463.989508h-33.57377v274.432a16.786885 16.786885 0 0 0 11.180065 15.830033 84.035148 84.035148 0 0 1 55.967476 79.032656c0 46.281443-37.652984 83.934426-83.934427 83.934426s-83.934426-37.652984-83.934426-83.934426c0-35.420328 22.494426-67.181115 55.967476-79.032656a16.786885 16.786885 0 0 0 11.180065-15.830033V279.33377h33.573771v83.934427h33.57377V127.916066c0-27.580852-22.444066-50.024918-50.696393-50.024918a50.092066 50.092066 0 0 0-50.024918 50.024918v599.30859a117.692852 117.692852 0 0 0-67.147541 106.076328c0 64.797377 52.71082 117.508197 117.508196 117.508196s117.508197-52.71082 117.508197-117.508196a117.692852 117.692852 0 0 0-67.147541-106.076328zM242.822295 111.464918a16.451148 16.451148 0 0 1 16.451148 16.451148v117.843934h-33.573771V127.916066c0-9.081705 7.369443-16.451148 17.122623-16.451148zM393.568525 279.33377h67.147541v33.573771h-67.147541zM393.568525 346.481311h67.147541v33.573771h-67.147541zM393.568525 413.628852h67.147541v33.573771h-67.147541zM393.568525 480.776393h67.147541v33.573771h-67.147541zM393.568525 547.923934h67.147541v33.573771h-67.147541zM393.568525 615.071475h67.147541v33.573771h-67.147541zM846.814426 262.546885h33.573771v33.573771h-33.573771z" fill="#000000" /><path d="M762.88 1017.956721c-101.812459 0-184.655738-82.843279-184.655738-184.655737a182.977049 182.977049 0 0 1 67.147541-142.201705V127.24459a116.635279 116.635279 0 0 1 116.500984-116.500983h2.014426a116.635279 116.635279 0 0 1 116.500984 116.500983v101.728525h-33.573771V127.24459a83.011148 83.011148 0 0 0-82.927213-82.927213h-2.014426a83.011148 83.011148 0 0 0-82.927213 82.927213v571.996328c0 5.271082-2.467672 10.24-6.697967 13.412721-38.42518 28.923803-60.449574 72.888656-60.449574 120.664131 0 83.296525 67.785443 151.081967 151.081967 151.081968s151.081967-67.785443 151.081967-151.081968c0-47.758689-22.04118-91.740328-60.449574-120.664131a16.786885 16.786885 0 0 1-6.697967-13.412721V329.694426h33.573771v361.404853c42.772984 35.269246 67.147541 86.637115 67.147541 142.201705 0 101.812459-82.843279 184.655738-184.655738 184.655737z" fill="#000000" /><path d="M796.45377 738.438295V127.916066a33.238033 33.238033 0 0 0-33.238032-33.238033h-0.671476a33.238033 33.238033 0 0 0-33.238032 33.238033v610.522229a100.670951 100.670951 0 0 0 33.57377 195.584 100.654164 100.654164 0 1 0 33.57377-195.584z" fill="#FFFFFF" /><path d="M729.30623 447.202623h67.14754v33.57377h-67.14754z" fill="#000000" /><path d="M796.45377 738.438295V463.989508h-67.14754v274.448787a100.670951 100.670951 0 0 0 33.57377 195.584 100.654164 100.654164 0 1 0 33.57377-195.584z" fill="#3EBBDD" /><path d="M813.240656 727.224656V127.916066c0-27.580852-22.444066-50.024918-50.696394-50.024918a50.092066 50.092066 0 0 0-50.024918 50.024918v599.30859a117.692852 117.692852 0 0 0-67.147541 106.076328c0 64.797377 52.71082 117.508197 117.508197 117.508196s117.508197-52.71082 117.508197-117.508196a117.692852 117.692852 0 0 0-67.147541-106.076328zM763.215738 111.464918a16.451148 16.451148 0 0 1 16.451147 16.451148v319.286557h-33.57377V127.916066c0-9.081705 7.369443-16.451148 17.122623-16.451148z m-0.335738 805.770492c-46.281443 0-83.934426-37.652984-83.934426-83.934426 0-35.420328 22.494426-67.181115 55.967475-79.032656a16.786885 16.786885 0 0 0 11.180066-15.830033V480.776393h33.57377v257.661902a16.786885 16.786885 0 0 0 11.180066 15.830033 84.035148 84.035148 0 0 1 55.967475 79.032656c0 46.281443-37.652984 83.934426-83.934426 83.934426zM913.961967 547.923934h67.147541v33.573771h-67.147541zM913.961967 480.776393h67.147541v33.573771h-67.147541zM913.961967 615.071475h67.147541v33.573771h-67.147541z" fill="#000000" /></svg>